<?xml version="1.0" encoding="UTF-8"?>
<svg xmlns="http://www.w3.org/2000/svg" xmlns:xlink="http://www.w3.org/1999/xlink" width="40pt" height="40pt" viewBox="0 0 40 40" version="1.1">
<g id="surface1">
<path style=" stroke:none;fill-rule:nonzero;fill:rgb(0%,0%,0%);fill-opacity:1;" d="M 20 3.449219 C 10.859375 3.449219 3.449219 10.859375 3.449219 20 C 3.449219 29.140625 10.859375 36.550781 20 36.550781 C 29.140625 36.550781 36.550781 29.140625 36.550781 20 C 36.542969 10.863281 29.136719 3.457031 20 3.449219 Z M 28.394531 30.871094 C 27.886719 31.085938 27.316406 31.089844 26.808594 30.882812 C 26.300781 30.675781 25.894531 30.277344 25.679688 29.769531 L 24.171875 26.207031 L 15.828125 26.207031 L 14.320312 29.769531 C 14.03125 30.453125 13.402344 30.925781 12.667969 31.019531 C 11.933594 31.109375 11.207031 30.800781 10.761719 30.214844 C 10.316406 29.621094 10.222656 28.839844 10.507812 28.160156 L 18.09375 10.230469 C 18.417969 9.464844 19.167969 8.964844 20 8.964844 C 20.832031 8.964844 21.582031 9.464844 21.90625 10.230469 L 29.492188 28.160156 C 29.707031 28.664062 29.710938 29.234375 29.503906 29.742188 C 29.296875 30.253906 28.898438 30.65625 28.394531 30.871094 Z M 28.394531 30.871094 "/>
<path style=" stroke:none;fill-rule:nonzero;fill:rgb(0%,0%,0%);fill-opacity:1;" d="M 17.578125 22.066406 L 22.421875 22.066406 L 20 16.34375 Z M 17.578125 22.066406 "/>
<path style=" stroke:none;fill-rule:nonzero;fill:rgb(0%,0%,0%);fill-opacity:1;" d="M 20 0 C 8.953125 0 0 8.953125 0 20 C 0 31.046875 8.953125 40 20 40 C 31.046875 40 40 31.046875 40 20 C 40 8.953125 31.046875 0 20 0 Z M 20 37.933594 C 10.097656 37.933594 2.066406 29.902344 2.066406 20 C 2.066406 10.097656 10.097656 2.066406 20 2.066406 C 29.902344 2.066406 37.933594 10.097656 37.933594 20 C 37.917969 29.898438 29.898438 37.917969 20 37.933594 Z M 20 37.933594 "/>
</g>
</svg>
